# Blender v3.0.0 OBJ File: ''
# www.blender.org
mtllib Arrow_Broadhead_Half.mtl
o Arrow_Broadhead_Half
v -0.045000 0.630000 -0.005000
v -0.045000 0.630000 0.005000
v -0.045000 0.740000 -0.005000
v -0.025000 0.620000 0.005000
v -0.015000 0.000000 -0.005000
v -0.015000 0.590000 -0.015000
v -0.015000 0.600000 -0.005000
v -0.015000 0.740000 0.015000
v -0.015000 0.740000 0.005000
v -0.005000 0.590000 0.015000
v -0.005000 -0.000000 0.005000
v -0.005000 0.590000 0.005000
v -0.005000 0.590000 -0.005000
v -0.005000 0.620000 0.025000
v -0.005000 0.600000 0.015000
v -0.005000 0.600000 0.025000
v -0.005000 0.620000 0.035000
v -0.005000 0.620000 -0.035000
v -0.005000 0.730000 0.025000
v -0.005000 0.630000 0.045000
v -0.005000 0.730000 -0.015000
v -0.005000 0.730000 -0.025000
v -0.005000 0.740000 0.015000
v -0.005000 0.760000 -0.005000
v -0.005000 0.740000 -0.005000
v -0.005000 0.760000 -0.015000
v 0.025000 0.730000 -0.005000
v 0.025000 0.740000 -0.005000
v -0.025000 0.740000 0.005000
v -0.025000 0.740000 -0.005000
v 0.005000 -0.000000 0.015000
v 0.005000 -0.000000 0.005000
v 0.005000 0.000000 -0.005000
v 0.005000 0.620000 0.025000
v 0.005000 0.620000 -0.025000
v 0.005000 0.630000 0.035000
v 0.005000 0.620000 -0.035000
v 0.005000 0.630000 0.045000
v 0.005000 0.730000 0.015000
v 0.005000 0.740000 0.045000
v 0.005000 0.740000 -0.015000
v 0.015000 0.600000 0.005000
v 0.015000 0.600000 0.015000
v 0.015000 0.600000 -0.015000
v 0.015000 0.730000 -0.005000
v 0.015000 0.740000 0.015000
v 0.015000 0.760000 -0.005000
v 0.025000 0.620000 -0.005000
v 0.035000 0.620000 -0.005000
v 0.035000 0.630000 -0.005000
v 0.045000 0.630000 0.005000
v 0.045000 0.630000 -0.005000
v 0.045000 0.740000 0.005000
v -0.005000 0.740000 0.045000
v 0.005000 0.620000 0.035000
v -0.005000 0.630000 0.035000
v 0.005000 0.600000 0.025000
v -0.015000 0.590000 0.015000
v -0.005000 0.730000 0.015000
v -0.035000 0.630000 0.005000
v -0.045000 0.740000 0.005000
v -0.015000 0.730000 0.005000
v 0.015000 0.740000 0.005000
v 0.005000 0.760000 0.005000
v 0.005000 0.740000 0.005000
v 0.025000 0.600000 0.005000
v 0.015000 0.730000 0.005000
v 0.025000 0.620000 0.005000
v 0.025000 0.740000 0.005000
v 0.035000 0.630000 0.005000
v 0.005000 0.730000 -0.025000
v 0.005000 0.740000 -0.025000
v -0.005000 0.740000 0.025000
v 0.005000 0.730000 0.025000
v 0.005000 0.740000 0.025000
v -0.035000 0.630000 -0.005000
v -0.015000 0.590000 -0.005000
v -0.005000 0.000000 -0.005000
v 0.015000 0.000000 -0.005000
v 0.005000 0.740000 -0.005000
v 0.005000 0.760000 -0.005000
v 0.015000 0.740000 -0.005000
v -0.015000 0.740000 -0.015000
v -0.005000 0.600000 -0.015000
v -0.005000 0.740000 -0.015000
v 0.005000 0.000000 -0.015000
v 0.005000 0.600000 -0.015000
v 0.005000 0.730000 -0.015000
v 0.005000 0.760000 -0.015000
v -0.005000 0.600000 -0.025000
v -0.005000 0.620000 -0.025000
v 0.005000 0.600000 -0.025000
v 0.005000 0.630000 -0.035000
v -0.005000 0.740000 -0.045000
v 0.005000 0.630000 -0.045000
v -0.005000 -0.000000 0.015000
v -0.015000 -0.000000 0.005000
v 0.015000 -0.000000 0.005000
v -0.005000 0.000000 -0.015000
v -0.015000 0.590000 0.005000
v -0.005000 0.590000 -0.015000
v 0.005000 0.600000 0.015000
v 0.005000 0.600000 0.005000
v -0.025000 0.600000 -0.005000
v -0.015000 0.600000 0.005000
v -0.025000 0.600000 0.005000
v 0.015000 0.600000 -0.005000
v 0.025000 0.600000 -0.005000
v 0.005000 0.600000 -0.005000
v -0.035000 0.620000 -0.005000
v -0.035000 0.620000 0.005000
v -0.025000 0.620000 -0.005000
v 0.035000 0.620000 0.005000
v -0.005000 0.630000 -0.045000
v -0.005000 0.630000 -0.035000
v -0.025000 0.730000 0.005000
v -0.025000 0.730000 -0.005000
v -0.015000 0.730000 -0.005000
v 0.025000 0.730000 0.005000
v -0.005000 0.740000 0.005000
v 0.005000 0.740000 0.015000
v 0.045000 0.740000 -0.005000
v -0.015000 0.740000 -0.005000
v 0.015000 0.740000 -0.015000
v -0.005000 0.740000 -0.025000
v 0.005000 0.740000 -0.045000
v -0.005000 0.760000 0.015000
v 0.005000 0.760000 0.015000
v -0.005000 0.760000 0.005000
v -0.015000 0.760000 0.005000
v -0.015000 0.760000 -0.005000
v 0.015000 0.760000 0.005000
vt 0.281250 0.135417
vt 0.270833 0.125000
vt 0.281250 0.125000
vt 0.270833 0.104167
vt 0.260417 0.083333
vt 0.260417 0.104167
vt 0.125000 0.250000
vt 0.104167 0.250000
vt 0.104167 0.260417
vt 0.281250 0.062500
vt 0.291666 0.072917
vt 0.291666 0.062500
vt 0.270833 0.145833
vt 0.250000 0.156250
vt 0.250000 0.145833
vt 0.062500 0.010417
vt 0.687500 0.000000
vt 0.687500 0.010417
vt 0.291666 0.041667
vt 0.281250 0.052083
vt 0.291666 0.052083
vt 0.281250 0.114583
vt 0.270833 0.104167
vt 0.281250 0.104167
vt 0.281250 0.250000
vt 0.270833 0.239583
vt 0.270833 0.250000
vt 0.281250 0.229167
vt 0.270833 0.239583
vt 0.281250 0.239583
vt 0.260417 0.281250
vt 0.250000 0.270833
vt 0.260417 0.270833
vt 0.020833 0.760417
vt 0.010417 0.770833
vt 0.020833 0.770833
vt 0.281250 0.260417
vt 0.270833 0.250000
vt 0.281250 0.250000
vt 0.031250 0.614583
vt 0.041667 0.614583
vt 0.041667 0.625000
vt 0.062500 0.656250
vt 0.677083 0.666667
vt 0.677083 0.656250
vt 0.281250 0.166667
vt 0.270833 0.177083
vt 0.281250 0.177083
vt 0.229167 0.083333
vt 0.229167 0.197917
vt 0.208333 0.187500
vt 0.687500 0.010417
vt 0.062500 0.020833
vt 0.062500 0.010417
vt 0.239583 0.166666
vt 0.250000 0.052083
vt 0.250000 0.166666
vt 0.260417 0.062500
vt 0.270833 0.072917
vt 0.260417 0.072917
vt 0.270833 0.218750
vt 0.260417 0.197916
vt 0.260417 0.218750
vt 0.156250 0.072917
vt 0.156250 0.052083
vt 0.166667 0.052083
vt 0.239583 0.260417
vt 0.125000 0.270833
vt 0.135417 0.281250
vt 0.281250 0.041667
vt 0.270833 0.031250
vt 0.281250 0.031250
vt 0.281250 0.208333
vt 0.270833 0.197916
vt 0.281250 0.197916
vt 0.281250 0.031250
vt 0.270833 0.020833
vt 0.281250 0.020833
vt 0.250000 0.145833
vt 0.260417 0.125000
vt 0.260417 0.145833
vt 0.270833 0.260417
vt 0.250000 0.270833
vt 0.250000 0.260417
vt 0.281250 0.093750
vt 0.270833 0.083333
vt 0.281250 0.083333
vt 0.270833 0.114583
vt 0.250000 0.125000
vt 0.270833 0.125000
vt 0.291666 0.072917
vt 0.281250 0.083333
vt 0.291666 0.083333
vt 0.656250 0.802083
vt 0.791667 0.802083
vt 0.802083 0.791667
vt 0.125000 0.218750
vt 0.135417 0.208333
vt 0.239583 0.229167
vt 0.218750 0.322917
vt 0.104167 0.333333
vt 0.104167 0.322917
vt 0.083333 0.635417
vt 0.093750 0.020833
vt 0.093750 0.635417
vt 0.291666 0.104167
vt 0.281250 0.093750
vt 0.291666 0.093750
vt 0.104167 0.635417
vt 0.093750 0.020833
vt 0.093750 0.635417
vt 0.270833 0.104167
vt 0.250000 0.114583
vt 0.270833 0.114583
vt 0.260417 0.083333
vt 0.250000 0.104167
vt 0.260417 0.104167
vt 0.062500 0.656250
vt 0.687500 0.645833
vt 0.687500 0.656250
vt 0.281250 0.166667
vt 0.270833 0.156250
vt 0.281250 0.156250
vt 0.260417 0.187500
vt 0.281250 0.197917
vt 0.281250 0.187500
vt 0.250000 0.239583
vt 0.260417 0.218750
vt 0.260417 0.239583
vt 0.291666 0.093750
vt 0.281250 0.083333
vt 0.291666 0.083333
vt 0.260417 0.135417
vt 0.281250 0.145833
vt 0.281250 0.135417
vt 0.062500 0.020833
vt 0.072917 0.645833
vt 0.072917 0.020833
vt 0.281250 0.270833
vt 0.270833 0.260417
vt 0.281250 0.260417
vt 0.281250 0.062500
vt 0.291666 0.052083
vt 0.291666 0.062500
vt 0.239583 0.187500
vt 0.250000 0.187500
vt 0.250000 0.177083
vt 0.239583 0.302083
vt 0.250000 0.302083
vt 0.250000 0.322917
vt 0.052083 0.770833
vt 0.041667 0.770833
vt 0.052083 0.760417
vt 0.281250 0.270833
vt 0.270833 0.281250
vt 0.281250 0.281250
vt 0.260417 0.260417
vt 0.270833 0.250000
vt 0.270833 0.260417
vt 0.010417 0.625000
vt 0.010417 0.614583
vt 0.000000 0.614583
vt 0.250000 0.218750
vt 0.260417 0.197917
vt 0.260417 0.218750
vt 0.260417 0.239583
vt 0.270833 0.250000
vt 0.270833 0.239583
vt 0.239583 0.166666
vt 0.229167 0.052083
vt 0.229167 0.166666
vt 0.250000 0.041667
vt 0.239583 0.031250
vt 0.250000 0.031250
vt 0.270833 0.281250
vt 0.260417 0.270833
vt 0.270833 0.270833
vt 0.062500 0.666667
vt 0.677083 0.677083
vt 0.677083 0.666667
vt 0.270833 0.187500
vt 0.260417 0.166667
vt 0.260417 0.187500
vt 0.083333 0.645833
vt 0.072917 0.020833
vt 0.083333 0.020833
vt 0.281250 0.177083
vt 0.270833 0.187500
vt 0.281250 0.187500
vt 0.260417 0.218750
vt 0.281250 0.229167
vt 0.281250 0.218750
vt 0.218750 0.322917
vt 0.333333 0.333333
vt 0.333333 0.322917
vt 0.270833 0.229167
vt 0.260417 0.239583
vt 0.260417 0.229167
vt 0.135417 0.187500
vt 0.125000 0.072917
vt 0.114583 0.083333
vt 0.281250 0.104167
vt 0.270833 0.093750
vt 0.281250 0.093750
vt 0.281250 0.208333
vt 0.270833 0.218750
vt 0.281250 0.218750
vt 0.270833 0.135417
vt 0.260417 0.125000
vt 0.260417 0.135417
vt 0.270833 0.156250
vt 0.250000 0.166667
vt 0.250000 0.156250
vt 0.802083 0.822917
vt 0.791667 0.812500
vt 0.656250 0.812500
vt 0.260417 0.239583
vt 0.250000 0.260416
vt 0.260417 0.260416
vt 0.281250 0.114583
vt 0.270833 0.125000
vt 0.270833 0.114583
vt 0.291666 0.020833
vt 0.281250 0.031250
vt 0.291666 0.031250
vt 0.281250 0.052083
vt 0.270833 0.041667
vt 0.281250 0.041667
vt 0.166667 0.187500
vt 0.177083 0.187500
vt 0.187500 0.083333
vt 0.281250 0.156250
vt 0.270833 0.145833
vt 0.281250 0.145833
vt 0.270833 0.135417
vt 0.270833 0.083333
vt 0.239583 0.260417
vt 0.239583 0.250000
vt 0.135417 0.239583
vt 0.250000 0.250000
vt 0.250000 0.229167
vt 0.135417 0.229167
vt 0.125000 0.239583
vt 0.281250 0.072917
vt 0.270833 0.156250
vt 0.062500 0.000000
vt 0.281250 0.041667
vt 0.270833 0.114583
vt 0.281250 0.239583
vt 0.270833 0.229167
vt 0.250000 0.281250
vt 0.031250 0.770833
vt 0.031250 0.625000
vt 0.020833 0.625000
vt 0.010417 0.760417
vt 0.000000 0.770833
vt 0.010417 0.791667
vt 0.020833 0.791667
vt 0.270833 0.260417
vt 0.041667 0.000000
vt 0.052083 0.000000
vt 0.052083 0.625000
vt 0.041667 0.760417
vt 0.062500 0.666667
vt 0.270833 0.166667
vt 0.197917 0.187500
vt 0.197917 0.052083
vt 0.208333 0.072917
vt 0.208333 0.052083
vt 0.218750 0.072917
vt 0.218750 0.083333
vt 0.208333 0.197917
vt 0.687500 0.020833
vt 0.239583 0.052083
vt 0.260417 0.052083
vt 0.270833 0.052083
vt 0.270833 0.062500
vt 0.281250 0.062500
vt 0.281250 0.072917
vt 0.250000 0.072917
vt 0.250000 0.062500
vt 0.270833 0.083333
vt 0.260417 0.083333
vt 0.270833 0.197916
vt 0.156250 0.197917
vt 0.135417 0.197917
vt 0.156250 0.187500
vt 0.135417 0.083333
vt 0.145833 0.083333
vt 0.145833 0.072917
vt 0.166667 0.187500
vt 0.239583 0.270833
vt 0.104167 0.260417
vt 0.104167 0.270833
vt 0.125000 0.281250
vt 0.135417 0.291667
vt 0.250000 0.291667
vt 0.250000 0.270833
vt 0.270833 0.041667
vt 0.270833 0.208333
vt 0.270833 0.031250
vt 0.250000 0.125000
vt 0.270833 0.270833
vt 0.270833 0.093750
vt 0.250000 0.114583
vt 0.281250 0.072917
vt 0.645833 0.791667
vt 0.802083 0.802083
vt 0.125000 0.208333
vt 0.135417 0.197917
vt 0.239583 0.218750
vt 0.250000 0.197917
vt 0.250000 0.218750
vt 0.104167 0.229167
vt 0.104167 0.218750
vt 0.218750 0.333333
vt 0.083333 0.020833
vt 0.281250 0.104167
vt 0.104167 0.020833
vt 0.250000 0.104167
vt 0.250000 0.083333
vt 0.062500 0.645833
vt 0.270833 0.166667
vt 0.260417 0.197917
vt 0.250000 0.218750
vt 0.281250 0.093750
vt 0.260417 0.145833
vt 0.062500 0.645833
vt 0.270833 0.270833
vt 0.281250 0.052083
vt 0.250000 0.166666
vt 0.239583 0.166666
vt 0.239583 0.177083
vt 0.229167 0.177083
vt 0.229167 0.187500
vt 0.239583 0.197916
vt 0.250000 0.197916
vt 0.260417 0.187500
vt 0.260417 0.177083
vt 0.135417 0.322917
vt 0.135417 0.312500
vt 0.125000 0.312500
vt 0.125000 0.302083
vt 0.104167 0.302083
vt 0.104167 0.291667
vt 0.239583 0.291667
vt 0.062500 0.625000
vt 0.062500 0.770833
vt 0.052083 0.791667
vt 0.041667 0.791667
vt 0.031250 0.770833
vt 0.270833 0.270833
vt 0.260417 0.250000
vt 0.020833 0.000000
vt 0.010417 0.000000
vt 0.250000 0.197917
vt 0.260417 0.250000
vt 0.239583 0.052083
vt 0.270833 0.031250
vt 0.270833 0.041667
vt 0.250000 0.052083
vt 0.239583 0.041667
vt 0.104167 0.052083
vt 0.104167 0.041667
vt 0.104167 0.031250
vt 0.104167 0.020833
vt 0.250000 0.020833
vt 0.260417 0.281250
vt 0.062500 0.677083
vt 0.270833 0.166667
vt 0.072917 0.645833
vt 0.270833 0.177083
vt 0.260417 0.229167
vt 0.218750 0.333333
vt 0.270833 0.239583
vt 0.104167 0.083333
vt 0.125000 0.187500
vt 0.104167 0.197917
vt 0.125000 0.197917
vt 0.135417 0.052083
vt 0.125000 0.052083
vt 0.114583 0.072917
vt 0.270833 0.104167
vt 0.270833 0.208333
vt 0.270833 0.125000
vt 0.270833 0.166667
vt 0.645833 0.812500
vt 0.645833 0.822917
vt 0.802083 0.812500
vt 0.822917 0.812500
vt 0.822917 0.802083
vt 0.031250 0.802083
vt 0.031250 0.812500
vt 0.645833 0.802083
vt 0.250000 0.239583
vt 0.281250 0.125000
vt 0.281250 0.020833
vt 0.270833 0.052083
vt 0.177083 0.052083
vt 0.166667 0.052083
vt 0.177083 0.072917
vt 0.177083 0.197917
vt 0.197917 0.197917
vt 0.187500 0.072917
vt 0.197917 0.083333
vt 0.270833 0.156250
vn 0.0000 -1.0000 0.0000
vn 0.0000 0.0000 -1.0000
vn -1.0000 0.0000 0.0000
vn 1.0000 0.0000 0.0000
vn 0.0000 1.0000 0.0000
vn 0.0000 -0.0000 1.0000
usemtl Arrow_Broadhead_Half_Material
s off
f 60/1/1 1/2/1 76/3/1
f 24/4/2 123/5/2 131/6/2
f 91/7/3 90/8/3 84/9/3
f 27/10/3 69/11/3 28/12/3
f 48/13/4 66/14/4 108/15/4
f 33/16/4 87/17/4 109/18/4
f 124/19/5 80/20/5 82/21/5
f 55/22/1 14/23/1 34/24/1
f 75/25/2 19/26/2 73/27/2
f 120/28/5 8/29/5 23/30/5
f 4/31/1 110/32/1 112/33/1
f 88/34/2 85/35/2 41/36/2
f 93/37/1 114/38/1 95/39/1
f 58/40/6 10/41/6 15/42/6
f 99/43/3 13/44/3 101/45/3
f 39/46/5 19/47/5 74/48/5
f 51/49/6 53/50/6 119/51/6
f 103/52/4 31/53/4 32/54/4
f 54/55/6 38/56/6 40/57/6
f 78/58/1 32/59/1 11/60/1
f 47/61/2 80/62/2 81/63/2
f 4/64/6 106/65/6 105/66/6
f 59/67/3 14/68/3 56/69/3
f 105/70/1 104/71/1 7/72/1
f 113/73/1 48/74/1 49/75/1
f 35/76/1 18/77/1 37/78/1
f 64/79/6 63/80/6 132/81/6
f 64/82/4 121/83/4 65/84/4
f 107/85/1 87/86/1 44/87/1
f 122/88/5 69/89/5 53/90/5
f 85/91/5 123/92/5 25/93/5
f 7/94/3 118/95/3 83/96/3
f 35/97/4 93/98/4 88/99/4
f 122/100/4 51/101/4 52/102/4
f 100/103/6 11/104/6 12/105/6
f 38/106/1 56/107/1 36/108/1
f 13/109/2 5/110/2 77/111/2
f 30/112/5 61/113/5 29/114/5
f 126/115/5 125/116/5 72/117/5
f 98/118/4 107/119/4 42/120/4
f 10/121/1 100/122/1 12/123/1
f 120/124/3 127/125/3 129/126/3
f 14/127/6 57/128/6 34/129/6
f 66/130/1 107/131/1 108/132/1
f 104/133/3 4/134/3 112/135/3
f 33/136/2 107/137/2 79/138/2
f 51/139/1 50/140/1 52/141/1
f 125/142/6 71/143/6 72/144/6
f 129/145/5 64/146/5 81/147/5
f 74/148/4 75/149/4 40/150/4
f 121/151/6 23/152/6 39/153/6
f 27/154/5 67/155/5 119/156/5
f 56/157/6 55/158/6 36/159/6
f 84/160/2 101/161/2 6/162/2
f 130/163/6 120/164/6 129/165/6
f 110/166/3 60/167/3 76/168/3
f 126/169/2 114/170/2 94/171/2
f 63/172/4 45/173/4 82/174/4
f 43/175/1 103/176/1 42/177/1
f 11/178/3 10/179/3 12/180/3
f 35/181/2 90/182/2 91/183/2
f 42/184/6 32/185/6 98/186/6
f 71/187/5 21/188/5 88/189/5
f 85/190/3 24/191/3 26/192/3
f 1/193/3 61/194/3 3/195/3
f 50/196/4 113/197/4 49/198/4
f 118/199/2 112/200/2 76/201/2
f 87/202/1 90/203/1 92/204/1
f 118/205/5 116/206/5 62/207/5
f 93/208/2 18/209/2 115/210/2
f 89/211/4 80/212/4 41/213/4
f 8/214/3 62/215/3 105/216/3
f 75/217/5 54/218/5 40/219/5
f 30/220/4 116/221/4 117/222/4
f 63/223/5 121/224/5 46/225/5
f 57/226/1 15/227/1 102/228/1
f 45/229/2 27/230/2 50/231/2
f 13/232/1 6/233/1 101/234/1
f 60/1/1 2/235/1 1/2/1
f 24/4/2 25/236/2 123/5/2
f 84/9/3 21/237/3 91/7/3
f 21/237/3 22/238/3 115/239/3
f 91/7/3 21/237/3 115/239/3
f 22/238/3 125/240/3 94/241/3
f 94/241/3 114/242/3 22/238/3
f 114/242/3 115/239/3 22/238/3
f 115/239/3 18/243/3 91/7/3
f 27/10/3 119/244/3 69/11/3
f 48/13/4 68/245/4 66/14/4
f 33/16/4 86/246/4 87/17/4
f 124/19/5 41/247/5 80/20/5
f 55/22/1 17/248/1 14/23/1
f 75/25/2 74/249/2 19/26/2
f 120/28/5 9/250/5 8/29/5
f 4/31/1 111/251/1 110/32/1
f 41/36/2 124/252/2 88/34/2
f 124/252/2 44/253/2 88/34/2
f 44/253/2 87/254/2 88/34/2
f 21/255/2 6/162/2 83/256/2
f 88/34/2 21/255/2 85/35/2
f 21/255/2 83/256/2 85/35/2
f 85/35/2 26/257/2 89/258/2
f 85/35/2 89/258/2 41/36/2
f 93/37/1 115/259/1 114/38/1
f 10/41/6 96/260/6 31/261/6
f 31/261/6 102/262/6 10/41/6
f 102/262/6 15/42/6 10/41/6
f 15/42/6 59/263/6 58/40/6
f 99/43/3 78/264/3 13/44/3
f 39/46/5 59/265/5 19/47/5
f 67/266/6 42/267/6 68/268/6
f 42/267/6 66/269/6 68/268/6
f 68/268/6 113/270/6 70/271/6
f 53/50/6 69/272/6 119/51/6
f 119/51/6 67/266/6 70/271/6
f 67/266/6 68/268/6 70/271/6
f 70/271/6 51/49/6 119/51/6
f 103/52/4 102/273/4 31/53/4
f 54/55/6 20/274/6 38/56/6
f 78/58/1 99/275/1 86/276/1
f 33/277/1 79/278/1 98/279/1
f 78/58/1 86/276/1 33/277/1
f 97/280/1 5/281/1 78/58/1
f 31/282/1 96/283/1 11/60/1
f 11/60/1 97/280/1 78/58/1
f 78/58/1 33/277/1 32/59/1
f 33/277/1 98/279/1 32/59/1
f 32/59/1 31/282/1 11/60/1
f 47/61/2 82/284/2 80/62/2
f 29/285/6 61/286/6 116/287/6
f 61/286/6 2/288/6 116/287/6
f 60/289/6 111/290/6 4/64/6
f 2/288/6 60/289/6 116/287/6
f 105/66/6 62/291/6 4/64/6
f 62/291/6 116/287/6 60/289/6
f 4/64/6 62/291/6 60/289/6
f 19/292/3 59/67/3 56/69/3
f 59/67/3 15/293/3 14/68/3
f 15/293/3 16/294/3 14/68/3
f 14/68/3 17/295/3 56/69/3
f 56/69/3 20/296/3 19/292/3
f 20/296/3 54/297/3 19/292/3
f 54/297/3 73/298/3 19/292/3
f 105/70/1 106/299/1 104/71/1
f 113/73/1 68/300/1 48/74/1
f 35/76/1 91/301/1 18/77/1
f 64/79/6 65/302/6 63/80/6
f 64/82/4 128/303/4 121/83/4
f 107/85/1 109/304/1 87/86/1
f 122/88/5 28/305/5 69/89/5
f 85/91/5 83/306/5 123/92/5
f 83/96/3 6/307/3 7/94/3
f 118/95/3 123/308/3 83/96/3
f 35/97/4 37/309/4 93/98/4
f 93/98/4 95/310/4 71/311/4
f 95/310/4 126/312/4 71/311/4
f 126/312/4 72/313/4 71/311/4
f 71/311/4 88/99/4 93/98/4
f 88/99/4 87/314/4 35/97/4
f 87/314/4 92/315/4 35/97/4
f 122/100/4 53/316/4 51/101/4
f 100/103/6 97/317/6 11/104/6
f 38/106/1 20/318/1 56/107/1
f 13/109/2 78/319/2 5/110/2
f 30/112/5 3/320/5 61/113/5
f 126/115/5 94/321/5 125/116/5
f 98/118/4 79/322/4 107/119/4
f 10/121/1 58/323/1 100/122/1
f 120/124/3 23/324/3 127/125/3
f 14/127/6 16/325/6 57/128/6
f 66/130/1 42/326/1 107/131/1
f 104/133/3 106/327/3 4/134/3
f 33/136/2 109/328/2 107/137/2
f 51/139/1 70/329/1 50/140/1
f 125/142/6 22/330/6 71/143/6
f 89/331/5 26/332/5 24/333/5
f 24/333/5 131/334/5 130/335/5
f 129/145/5 127/336/5 128/337/5
f 24/333/5 130/335/5 129/145/5
f 81/147/5 89/331/5 24/333/5
f 132/338/5 47/339/5 81/147/5
f 129/145/5 128/337/5 64/146/5
f 64/146/5 132/338/5 81/147/5
f 81/147/5 24/333/5 129/145/5
f 40/150/4 38/340/4 74/148/4
f 38/340/4 36/341/4 74/148/4
f 36/341/4 55/342/4 34/343/4
f 34/343/4 57/344/4 102/345/4
f 102/345/4 39/346/4 34/343/4
f 39/346/4 74/148/4 36/341/4
f 34/343/4 39/346/4 36/341/4
f 43/347/6 46/348/6 39/153/6
f 46/348/6 121/151/6 39/153/6
f 121/151/6 128/349/6 127/350/6
f 23/152/6 8/351/6 59/263/6
f 8/351/6 58/40/6 59/263/6
f 121/151/6 127/350/6 23/152/6
f 39/153/6 102/262/6 43/347/6
f 23/152/6 59/263/6 39/153/6
f 27/154/5 45/352/5 67/155/5
f 56/157/6 17/353/6 55/158/6
f 84/160/2 87/254/2 101/161/2
f 87/254/2 86/354/2 101/161/2
f 86/354/2 99/355/2 101/161/2
f 6/162/2 21/255/2 84/160/2
f 130/163/6 9/356/6 120/164/6
f 110/166/3 111/357/3 60/167/3
f 126/169/2 95/358/2 114/170/2
f 47/359/4 132/360/4 63/172/4
f 63/172/4 46/361/4 67/362/4
f 46/361/4 43/363/4 67/362/4
f 43/363/4 42/364/4 67/362/4
f 45/173/4 107/365/4 44/366/4
f 45/173/4 44/366/4 124/367/4
f 63/172/4 67/362/4 45/173/4
f 82/174/4 47/359/4 63/172/4
f 45/173/4 124/367/4 82/174/4
f 43/175/1 102/368/1 103/176/1
f 11/178/3 96/369/3 10/179/3
f 35/181/2 92/370/2 90/182/2
f 42/184/6 103/371/6 32/185/6
f 71/187/5 22/372/5 21/188/5
f 85/190/3 25/373/3 24/191/3
f 1/193/3 2/374/3 61/194/3
f 50/196/4 70/375/4 113/197/4
f 76/201/2 1/376/2 117/377/2
f 1/376/2 3/378/2 117/377/2
f 3/378/2 30/379/2 117/377/2
f 117/377/2 118/199/2 76/201/2
f 118/199/2 7/380/2 112/200/2
f 7/380/2 104/381/2 112/200/2
f 112/200/2 110/382/2 76/201/2
f 87/202/1 84/383/1 90/203/1
f 118/205/5 117/384/5 116/206/5
f 93/208/2 37/385/2 18/209/2
f 89/211/4 81/386/4 80/212/4
f 100/387/3 58/388/3 105/216/3
f 58/388/3 8/214/3 105/216/3
f 9/389/3 130/390/3 131/391/3
f 5/392/3 97/393/3 100/387/3
f 7/94/3 6/307/3 77/394/3
f 77/394/3 5/392/3 100/387/3
f 9/389/3 131/391/3 123/308/3
f 123/308/3 118/95/3 62/215/3
f 105/216/3 7/94/3 77/394/3
f 9/389/3 123/308/3 62/215/3
f 105/216/3 77/394/3 100/387/3
f 8/214/3 9/389/3 62/215/3
f 75/217/5 73/395/5 54/218/5
f 30/220/4 29/396/4 116/221/4
f 63/223/5 65/397/5 121/224/5
f 57/226/1 16/398/1 15/227/1
f 108/399/2 107/400/2 48/401/2
f 107/400/2 45/229/2 48/401/2
f 27/230/2 28/402/2 122/403/2
f 50/231/2 49/404/2 48/401/2
f 122/403/2 52/405/2 27/230/2
f 52/405/2 50/231/2 27/230/2
f 48/401/2 45/229/2 50/231/2
f 13/232/1 77/406/1 6/233/1
