# Blender v3.0.0 OBJ File: ''
# www.blender.org
mtllib Spear_Short.mtl
o Spear_Short
v 0.035000 0.850000 -0.005000
v 0.035000 0.820000 0.005000
v 0.025000 0.050000 0.015000
v 0.025000 0.800000 0.005000
v 0.025000 0.820000 0.005000
v 0.025000 0.850000 0.005000
v 0.025000 0.850000 -0.005000
v 0.025000 0.900000 0.005000
v 0.015000 0.010000 -0.005000
v 0.015000 0.030000 0.005000
v 0.015000 0.030000 0.015000
v 0.015000 0.050000 -0.015000
v 0.015000 0.800000 0.005000
v 0.015000 0.870000 -0.015000
v 0.015000 0.870000 0.005000
v 0.015000 0.810000 0.005000
v 0.015000 0.950000 -0.005000
v 0.015000 0.900000 0.005000
v 0.015000 0.900000 -0.005000
v 0.005000 0.010000 -0.015000
v 0.005000 0.030000 0.015000
v 0.005000 0.050000 -0.015000
v 0.005000 0.050000 0.015000
v 0.005000 0.810000 0.005000
v 0.005000 0.880000 -0.015000
v 0.005000 0.980000 -0.005000
v -0.005000 0.010000 0.005000
v -0.005000 0.030000 -0.005000
v -0.005000 0.030000 0.015000
v -0.005000 0.050000 0.005000
v -0.005000 0.050000 0.015000
v -0.005000 0.810000 0.005000
v -0.005000 0.870000 -0.015000
v -0.005000 0.880000 -0.005000
v -0.005000 0.880000 0.005000
v -0.015000 0.010000 -0.005000
v -0.015000 0.030000 -0.005000
v -0.015000 0.030000 0.005000
v -0.015000 0.030000 0.015000
v -0.015000 0.050000 -0.025000
v -0.015000 0.050000 -0.015000
v -0.015000 0.050000 0.025000
v -0.015000 0.050000 0.005000
v -0.015000 0.810000 -0.015000
v -0.015000 0.810000 -0.005000
v -0.015000 0.870000 -0.005000
v -0.015000 0.870000 0.005000
v -0.015000 0.900000 -0.005000
v -0.015000 0.950000 -0.005000
v -0.025000 0.040000 -0.015000
v -0.025000 0.050000 -0.015000
v -0.025000 0.050000 0.015000
v -0.035000 0.850000 0.005000
v -0.015000 0.040000 -0.025000
v 0.015000 0.050000 -0.025000
v 0.015000 0.040000 -0.025000
v 0.015000 0.040000 -0.015000
v 0.025000 0.050000 -0.015000
v 0.025000 0.040000 -0.015000
v 0.015000 0.030000 -0.015000
v 0.005000 0.870000 -0.015000
v -0.005000 0.010000 -0.015000
v -0.005000 0.810000 -0.015000
v -0.005000 0.880000 -0.015000
v -0.015000 0.040000 -0.015000
v -0.015000 0.870000 -0.015000
v 0.035000 0.820000 -0.005000
v 0.015000 0.800000 -0.005000
v 0.025000 0.800000 -0.005000
v 0.025000 0.900000 -0.005000
v 0.015000 0.870000 -0.005000
v 0.005000 0.010000 -0.005000
v 0.005000 0.050000 -0.005000
v 0.005000 0.880000 -0.005000
v 0.005000 0.950000 -0.005000
v -0.005000 0.000000 -0.005000
v -0.005000 0.980000 -0.005000
v -0.005000 0.050000 -0.005000
v -0.025000 0.820000 -0.005000
v -0.025000 0.850000 -0.005000
v -0.035000 0.820000 -0.005000
v 0.015000 0.010000 0.005000
v 0.005000 0.030000 0.005000
v 0.015000 0.050000 0.005000
v 0.005000 0.050000 0.005000
v 0.005000 0.880000 0.005000
v 0.005000 0.000000 0.005000
v -0.005000 0.000000 0.005000
v -0.005000 0.950000 0.005000
v -0.005000 0.980000 0.005000
v -0.015000 0.010000 0.005000
v -0.005000 0.870000 0.005000
v -0.015000 0.950000 0.005000
v -0.025000 0.800000 0.005000
v 0.015000 0.040000 0.015000
v 0.015000 0.050000 0.015000
v 0.015000 0.810000 0.015000
v 0.015000 0.870000 0.015000
v 0.005000 0.810000 0.015000
v 0.005000 0.870000 0.015000
v -0.005000 0.010000 0.015000
v 0.005000 0.880000 0.015000
v -0.005000 0.870000 0.015000
v -0.015000 0.810000 0.015000
v -0.015000 0.870000 0.015000
v -0.015000 0.050000 0.015000
v 0.005000 0.000000 -0.005000
v -0.005000 0.010000 -0.005000
v 0.005000 0.010000 0.005000
v 0.005000 0.010000 0.015000
v 0.015000 0.030000 -0.005000
v 0.005000 0.030000 -0.015000
v 0.005000 0.030000 -0.005000
v -0.015000 0.030000 -0.015000
v -0.005000 0.030000 -0.015000
v -0.005000 0.030000 0.005000
v 0.025000 0.040000 0.015000
v -0.015000 0.040000 0.015000
v -0.025000 0.040000 0.015000
v 0.015000 0.040000 0.025000
v -0.015000 0.040000 0.025000
v -0.015000 0.800000 0.005000
v -0.025000 0.800000 -0.005000
v -0.015000 0.800000 -0.005000
v 0.015000 0.810000 -0.005000
v 0.005000 0.810000 -0.015000
v 0.015000 0.810000 -0.015000
v 0.005000 0.810000 -0.005000
v -0.005000 0.810000 -0.005000
v -0.005000 0.810000 0.015000
v -0.015000 0.810000 0.005000
v 0.025000 0.820000 -0.005000
v -0.025000 0.820000 0.005000
v -0.035000 0.820000 0.005000
v -0.005000 0.050000 -0.015000
v 0.015000 0.050000 -0.005000
v -0.015000 0.050000 -0.005000
v 0.015000 0.050000 0.025000
v 0.035000 0.850000 0.005000
v -0.035000 0.850000 -0.005000
v -0.025000 0.850000 0.005000
v 0.005000 0.870000 -0.005000
v -0.005000 0.870000 -0.005000
v 0.005000 0.870000 0.005000
v -0.005000 0.880000 0.015000
v -0.025000 0.900000 -0.005000
v -0.015000 0.900000 0.005000
v -0.025000 0.900000 0.005000
v 0.015000 0.950000 0.005000
v 0.005000 0.950000 0.005000
v -0.005000 0.950000 -0.005000
v 0.005000 0.980000 0.005000
v 0.005000 0.770043 -0.015000
v -0.015000 0.770069 -0.005000
v 0.015000 0.770003 -0.005000
v -0.005000 0.769993 0.015000
v -0.005000 0.769953 -0.005000
v 0.005000 0.769931 0.015000
v -0.005000 0.769955 0.005000
v 0.015000 0.770011 0.005000
v -0.015000 0.769972 0.005000
v 0.005000 0.769938 0.005000
v 0.005000 0.769983 -0.005000
v -0.005000 0.769897 -0.015000
vt 0.023438 0.000000
vt 0.023438 0.562487
vt 0.015625 0.562502
vt 0.015625 0.000000
vt 0.109375 0.679688
vt 0.671853 0.679688
vt 0.671929 0.687500
vt 0.109375 0.687500
vt 0.109375 0.664063
vt 0.671838 0.664063
vt 0.671795 0.671875
vt 0.109375 0.671875
vt 0.085937 0.000000
vt 0.085937 0.562465
vt 0.093750 0.562478
vt 0.093750 0.000000
vt 0.671877 0.695313
vt 0.671884 0.687500
vt 0.109375 0.687500
vt 0.109375 0.695313
vt 0.039063 0.562554
vt 0.031250 0.562463
vt 0.031250 0.000000
vt 0.039063 0.000000
vt 0.671908 0.656250
vt 0.671862 0.648438
vt 0.109375 0.648438
vt 0.109375 0.656250
vt 0.140625 0.562446
vt 0.148437 0.562494
vt 0.148437 0.000000
vt 0.140625 0.000000
vt 0.671826 0.664062
vt 0.671821 0.656250
vt 0.109375 0.656250
vt 0.109375 0.664062
vt 0.125000 0.562420
vt 0.117188 0.562533
vt 0.117188 0.000000
vt 0.125000 0.000000
vt 0.671869 0.671875
vt 0.671840 0.679688
vt 0.109375 0.679688
vt 0.109375 0.671875
vt 0.070312 0.562509
vt 0.078125 0.562451
vt 0.078125 0.000000
vt 0.070312 0.000000
vt 0.195312 0.101562
vt 0.210937 0.101562
vt 0.210937 0.109375
vt 0.195312 0.109375
vt 0.171875 0.203125
vt 0.171875 0.210937
vt 0.164062 0.210937
vt 0.164062 0.203125
vt 0.218750 0.039063
vt 0.218750 0.046875
vt 0.210938 0.046875
vt 0.210938 0.039063
vt 0.156250 0.164063
vt 0.195312 0.164063
vt 0.195312 0.171875
vt 0.156250 0.171875
vt 0.218750 0.078125
vt 0.210937 0.078125
vt 0.210937 0.085937
vt 0.218750 0.085937
vt 0.195312 0.007812
vt 0.187500 0.007812
vt 0.187500 0.015625
vt 0.187500 0.023438
vt 0.179687 0.023438
vt 0.179687 0.031250
vt 0.171875 0.031250
vt 0.171875 0.023438
vt 0.164062 0.023438
vt 0.164062 0.015625
vt 0.171875 0.015625
vt 0.171875 0.007812
vt 0.179687 0.007812
vt 0.187500 0.000000
vt 0.164062 0.000000
vt 0.164062 0.007812
vt 0.156250 0.007812
vt 0.156250 0.031250
vt 0.164062 0.031250
vt 0.164062 0.039063
vt 0.187500 0.039063
vt 0.187500 0.031250
vt 0.195312 0.031250
vt 0.164062 0.218750
vt 0.156250 0.218750
vt 0.156250 0.210937
vt 0.164062 0.210937
vt 0.195312 0.179688
vt 0.203125 0.179688
vt 0.203125 0.187500
vt 0.195312 0.187500
vt 0.195312 0.023438
vt 0.210937 0.023438
vt 0.210937 0.031250
vt 0.195312 0.031250
vt 0.210937 0.109375
vt 0.210937 0.117188
vt 0.203125 0.117188
vt 0.203125 0.109375
vt 0.195312 0.210937
vt 0.195312 0.203125
vt 0.187500 0.203125
vt 0.187500 0.210937
vt 0.195312 0.085937
vt 0.187500 0.085937
vt 0.187500 0.109375
vt 0.195312 0.109375
vt 0.218750 0.015625
vt 0.218750 0.023438
vt 0.210938 0.023438
vt 0.210938 0.015625
vt 0.125000 0.593750
vt 0.132812 0.593750
vt 0.132812 0.640625
vt 0.125000 0.640625
vt 0.125000 0.648438
vt 0.117188 0.648438
vt 0.117188 0.640625
vt 0.109375 0.640625
vt 0.109375 0.593750
vt 0.117188 0.593750
vt 0.195312 0.101562
vt 0.203125 0.101562
vt 0.203125 0.085937
vt 0.195312 0.085937
vt 0.203125 0.109375
vt 0.179688 0.109375
vt 0.179688 0.117188
vt 0.203125 0.117188
vt 0.218750 0.054688
vt 0.218750 0.046875
vt 0.210938 0.046875
vt 0.210938 0.054688
vt 0.187500 0.039063
vt 0.195312 0.039063
vt 0.195312 0.062500
vt 0.187500 0.062500
vt 0.703125 0.648438
vt 0.703125 0.656250
vt 0.187500 0.039063
vt 0.187500 0.062500
vt 0.179688 0.062500
vt 0.179688 0.039063
vt 0.156250 0.171875
vt 0.195312 0.171875
vt 0.195312 0.179688
vt 0.156250 0.179688
vt 0.171875 0.070312
vt 0.171875 0.062500
vt 0.179688 0.062500
vt 0.179688 0.085938
vt 0.171875 0.085938
vt 0.171875 0.078125
vt 0.156250 0.078125
vt 0.156250 0.070312
vt 0.210937 0.148438
vt 0.210937 0.156250
vt 0.203125 0.156250
vt 0.203125 0.148438
vt 0.164062 0.203125
vt 0.164062 0.210937
vt 0.156250 0.210937
vt 0.156250 0.203125
vt 0.179687 0.203125
vt 0.179687 0.210937
vt 0.171875 0.210937
vt 0.171875 0.203125
vt 0.210937 0.140625
vt 0.210937 0.148438
vt 0.203125 0.148438
vt 0.203125 0.140625
vt 0.203125 0.085937
vt 0.210937 0.085937
vt 0.210937 0.093750
vt 0.203125 0.093750
vt 0.210937 0.179688
vt 0.210937 0.171875
vt 0.203125 0.171875
vt 0.203125 0.179688
vt 0.195312 0.015625
vt 0.210937 0.015625
vt 0.210937 0.023438
vt 0.195312 0.023438
vt 0.203125 0.062500
vt 0.179688 0.062500
vt 0.179688 0.070312
vt 0.203125 0.070312
vt 0.210937 0.164063
vt 0.210937 0.156250
vt 0.203125 0.156250
vt 0.203125 0.164063
vt 0.179688 0.070312
vt 0.203125 0.070312
vt 0.203125 0.078125
vt 0.179688 0.078125
vt 0.210937 0.187500
vt 0.210937 0.179688
vt 0.203125 0.179688
vt 0.203125 0.187500
vt 0.164062 0.218750
vt 0.171875 0.218750
vt 0.171875 0.210937
vt 0.164062 0.210937
vt 0.210938 0.078125
vt 0.210938 0.070312
vt 0.203125 0.070312
vt 0.203125 0.078125
vt 0.203125 0.125000
vt 0.203125 0.132813
vt 0.179687 0.132813
vt 0.179687 0.125000
vt 0.179687 0.203125
vt 0.203125 0.203125
vt 0.203125 0.195312
vt 0.179687 0.195312
vt 0.179688 0.039063
vt 0.171875 0.039063
vt 0.171875 0.046875
vt 0.156250 0.046875
vt 0.156250 0.054688
vt 0.171875 0.054688
vt 0.171875 0.062500
vt 0.179688 0.062500
vt 0.703125 0.656250
vt 0.703125 0.664062
vt 0.210937 0.062500
vt 0.203125 0.062500
vt 0.203125 0.070312
vt 0.210937 0.070312
vt 0.179688 0.078125
vt 0.203125 0.078125
vt 0.203125 0.085937
vt 0.179688 0.085937
vt 0.210937 0.039063
vt 0.195312 0.039063
vt 0.195312 0.046875
vt 0.210937 0.046875
vt 0.195312 0.179688
vt 0.203125 0.179688
vt 0.203125 0.164063
vt 0.195312 0.164063
vt 0.210937 0.101562
vt 0.218750 0.101562
vt 0.218750 0.093750
vt 0.210937 0.093750
vt 0.218750 0.000000
vt 0.218750 0.007812
vt 0.210937 0.007812
vt 0.210937 0.000000
vt 0.210937 0.093750
vt 0.210937 0.101562
vt 0.203125 0.101562
vt 0.203125 0.093750
vt 0.218750 0.140625
vt 0.218750 0.132813
vt 0.210937 0.132813
vt 0.210937 0.140625
vt 0.203125 0.117188
vt 0.203125 0.125000
vt 0.179687 0.125000
vt 0.179687 0.117188
vt 0.187500 0.085937
vt 0.187500 0.109375
vt 0.179688 0.109375
vt 0.179688 0.085937
vt 0.218750 0.132813
vt 0.210937 0.132813
vt 0.210937 0.125000
vt 0.218750 0.125000
vt 0.210937 0.132813
vt 0.210937 0.125000
vt 0.203125 0.125000
vt 0.203125 0.132813
vt 0.218750 0.093750
vt 0.210938 0.093750
vt 0.210938 0.085938
vt 0.218750 0.085938
vt 0.210937 0.164063
vt 0.210937 0.171875
vt 0.203125 0.171875
vt 0.203125 0.164063
vt 0.187500 0.203125
vt 0.187500 0.210937
vt 0.179687 0.210937
vt 0.179687 0.203125
vt 0.218750 0.031250
vt 0.218750 0.039063
vt 0.210938 0.039063
vt 0.210938 0.031250
vt 0.210937 0.078125
vt 0.203125 0.078125
vt 0.203125 0.085937
vt 0.210937 0.085937
vt 0.195312 0.187500
vt 0.156250 0.187500
vt 0.156250 0.195312
vt 0.195312 0.195312
vt 0.203125 0.015625
vt 0.195312 0.015625
vt 0.195312 0.000000
vt 0.203125 0.000000
vt 0.210937 0.062500
vt 0.218750 0.062500
vt 0.218750 0.070312
vt 0.210937 0.070312
vt 0.210937 0.132813
vt 0.210937 0.140625
vt 0.203125 0.140625
vt 0.203125 0.132813
vt 0.179687 0.203125
vt 0.156250 0.203125
vt 0.156250 0.195312
vt 0.179687 0.195312
vt 0.210937 0.109375
vt 0.218750 0.109375
vt 0.218750 0.101563
vt 0.210937 0.101563
vt 0.171875 0.125000
vt 0.171875 0.109375
vt 0.164062 0.109375
vt 0.164062 0.125000
vt 0.156250 0.125000
vt 0.156250 0.132813
vt 0.179687 0.132813
vt 0.179687 0.125000
vt 0.218750 0.007813
vt 0.218750 0.015625
vt 0.210937 0.015625
vt 0.210937 0.007813
vt 0.210937 0.117188
vt 0.210937 0.125000
vt 0.203125 0.125000
vt 0.203125 0.117188
vt 0.218750 0.070312
vt 0.218750 0.078125
vt 0.210938 0.078125
vt 0.210938 0.070312
vt 0.218750 0.156250
vt 0.210937 0.156250
vt 0.210937 0.164063
vt 0.218750 0.164063
vt 0.203125 0.140625
vt 0.156250 0.140625
vt 0.156250 0.148438
vt 0.203125 0.148438
vt 0.703125 0.679688
vt 0.703125 0.671875
vt 0.695312 0.687500
vt 0.695312 0.695313
vt 0.210937 0.031250
vt 0.195312 0.031250
vt 0.195312 0.039063
vt 0.210937 0.039063
vt 0.210937 0.203125
vt 0.210937 0.195312
vt 0.203125 0.195312
vt 0.203125 0.203125
vt 0.210937 0.210937
vt 0.210937 0.203125
vt 0.203125 0.203125
vt 0.203125 0.210937
vt 0.218750 0.117187
vt 0.218750 0.109375
vt 0.210937 0.109375
vt 0.210937 0.117187
vt 0.210937 0.148438
vt 0.218750 0.148438
vt 0.218750 0.156250
vt 0.210937 0.156250
vt 0.203125 0.210937
vt 0.203125 0.203125
vt 0.195312 0.203125
vt 0.195312 0.210937
vt 0.218750 0.031250
vt 0.218750 0.023438
vt 0.210938 0.023438
vt 0.210938 0.031250
vt 0.210937 0.140625
vt 0.218750 0.140625
vt 0.218750 0.148438
vt 0.210937 0.148438
vt 0.210937 0.015625
vt 0.203125 0.015625
vt 0.203125 0.000000
vt 0.210937 0.000000
vt 0.218750 0.117187
vt 0.210937 0.117187
vt 0.210937 0.125000
vt 0.218750 0.125000
vt 0.140625 0.593750
vt 0.132812 0.593750
vt 0.132812 0.640625
vt 0.140625 0.640625
vt 0.140625 0.648438
vt 0.148437 0.648438
vt 0.148437 0.640625
vt 0.156250 0.640625
vt 0.156250 0.593750
vt 0.148437 0.593750
vt 0.156250 0.109375
vt 0.156250 0.101562
vt 0.164062 0.101562
vt 0.164062 0.085937
vt 0.171875 0.085937
vt 0.171875 0.101562
vt 0.179687 0.101562
vt 0.179687 0.015625
vt 0.203125 0.148438
vt 0.156250 0.148438
vt 0.156250 0.156250
vt 0.203125 0.156250
vt 0.210937 0.046875
vt 0.195312 0.046875
vt 0.195312 0.054688
vt 0.210937 0.054688
vt 0.195312 0.179688
vt 0.156250 0.179688
vt 0.156250 0.187500
vt 0.195312 0.187500
vt 0.156250 0.156250
vt 0.203125 0.156250
vt 0.203125 0.164063
vt 0.156250 0.164063
vt 0.156250 0.132813
vt 0.203125 0.132813
vt 0.203125 0.140625
vt 0.156250 0.140625
vt 0.695312 0.679688
vt 0.695312 0.687500
vt 0.023438 0.593750
vt 0.015625 0.593750
vt 0.015625 0.640625
vt 0.023438 0.640625
vt 0.023438 0.648438
vt 0.031250 0.648438
vt 0.031250 0.640625
vt 0.039063 0.640625
vt 0.039063 0.593750
vt 0.031250 0.593750
vt 0.039063 0.585937
vt 0.046875 0.585937
vt 0.046875 0.601562
vt 0.054687 0.601562
vt 0.054687 0.625000
vt 0.046875 0.625000
vt 0.046875 0.664062
vt 0.039063 0.664062
vt 0.039063 0.703125
vt 0.031250 0.703125
vt 0.031250 0.726562
vt 0.023438 0.726562
vt 0.023438 0.703125
vt 0.015625 0.703125
vt 0.015625 0.664062
vt 0.007812 0.664062
vt 0.007812 0.625000
vt 0.000000 0.625000
vt 0.000000 0.601562
vt 0.007812 0.601562
vt 0.007812 0.585937
vt 0.015625 0.585937
vt 0.703125 0.664063
vt 0.703125 0.671875
vt 0.085937 0.593750
vt 0.093750 0.593750
vt 0.093750 0.640625
vt 0.085937 0.640625
vt 0.085937 0.648438
vt 0.078125 0.648438
vt 0.078125 0.640625
vt 0.070312 0.640625
vt 0.070312 0.593750
vt 0.078125 0.593750
vt 0.070312 0.585937
vt 0.062500 0.585937
vt 0.062500 0.601562
vt 0.054687 0.601562
vt 0.054687 0.625000
vt 0.062500 0.625000
vt 0.062500 0.664062
vt 0.070312 0.664062
vt 0.070312 0.703125
vt 0.078125 0.703125
vt 0.078125 0.726562
vt 0.085937 0.726562
vt 0.085937 0.703125
vt 0.093750 0.703125
vt 0.093750 0.664062
vt 0.101562 0.664062
vt 0.101562 0.625000
vt 0.109375 0.625000
vt 0.109375 0.601562
vt 0.101562 0.601562
vt 0.101562 0.585937
vt 0.093750 0.585937
vn -0.0000 -0.0000 -1.0000
vn -1.0000 -0.0000 0.0000
vn 0.0000 0.0000 1.0000
vn 1.0000 0.0000 0.0000
vn 0.0000 -1.0000 0.0000
vn 0.0000 1.0000 -0.0000
usemtl Spear_-_Short_Material
s off
f 73/1/1 163/2/1 155/3/1 136/4/1
f 43/5/2 161/6/2 154/7/2 137/8/2
f 78/9/2 157/10/2 164/11/2 135/12/2
f 30/13/3 159/14/3 161/15/3 43/16/3
f 155/17/4 160/18/4 84/19/4 136/20/4
f 154/21/1 157/22/1 78/23/1 137/24/1
f 153/25/4 163/26/4 73/27/4 22/28/4
f 158/29/3 156/30/3 31/31/3 23/32/3
f 162/33/4 158/34/4 23/35/4 85/36/4
f 164/37/1 153/38/1 22/39/1 135/40/1
f 156/41/2 159/42/2 30/43/2 31/44/2
f 160/45/3 162/46/3 85/47/3 84/48/3
usemtl Metal_Material
f 94/49/2 133/50/2 79/51/2 123/52/2
f 101/53/5 27/54/5 109/55/5 110/56/5
f 109/57/5 72/58/5 9/59/5 82/60/5
f 141/61/2 148/62/2 146/63/2 80/64/2
f 138/65/4 120/66/4 95/67/4 96/68/4
f 52/69/6 106/70/6 43/71/6 137/72/6 78/73/6 135/74/6 22/75/6 73/76/6 136/77/6 84/78/6 85/79/6 23/80/6 31/81/6 42/82/6 138/83/6 96/84/6 3/85/6 58/86/6 12/87/6 55/88/6 40/89/6 41/90/6 51/91/6
f 108/92/1 72/93/1 107/94/1 76/95/1
f 103/96/2 145/97/2 35/98/2 92/99/2
f 101/100/2 29/101/2 116/102/2 27/103/2
f 108/104/5 62/105/5 20/106/5 72/107/5
f 35/108/6 145/109/6 102/110/6 86/111/6
f 3/112/4 117/113/4 59/114/4 58/115/4
f 128/116/5 126/117/5 127/118/5 125/119/5
f 63/120/1 44/121/1 66/122/1 33/123/1 64/124/1 25/125/1 61/126/1 14/127/1 127/128/1 126/129/1 153/38/1 164/37/1
f 116/130/3 38/131/3 91/132/3 27/133/3
f 139/134/4 2/135/4 67/136/4 1/137/4
f 7/138/6 6/139/6 139/140/6 1/141/6
f 119/142/2 52/143/2 51/144/2 50/145/2
f 128/146/4 163/26/4 153/25/4 126/147/4
f 95/148/5 57/149/5 59/150/5 117/151/5
f 147/152/2 93/153/2 49/154/2 48/155/2
f 38/156/2 39/157/2 118/158/2 65/159/2 114/160/2 37/161/2 36/162/2 91/163/2
f 39/164/5 38/165/5 116/166/5 29/167/5
f 91/168/5 36/169/5 108/170/5 27/171/5
f 113/172/5 112/173/5 60/174/5 111/175/5
f 104/176/5 131/177/5 32/178/5 130/179/5
f 143/180/2 34/181/2 64/182/2 33/183/2
f 144/184/6 100/185/6 98/186/6 15/187/6
f 108/188/2 28/189/2 115/190/2 62/191/2
f 152/192/4 150/193/4 75/194/4 26/195/4
f 49/196/6 93/197/6 89/198/6 151/199/6
f 89/200/2 90/201/2 77/202/2 151/203/2
f 146/204/6 148/205/6 147/206/6 48/207/6
f 109/208/3 27/209/3 88/210/3 87/211/3
f 66/212/6 46/213/6 143/214/6 33/215/6
f 121/216/5 118/217/5 95/218/5 120/219/5
f 138/220/3 42/221/3 121/222/3 120/223/3
f 95/224/4 11/225/4 10/226/4 82/227/4 9/228/4 111/229/4 60/230/4 57/231/4
f 99/232/4 158/34/4 162/33/4 24/233/4
f 102/234/4 100/235/4 144/236/4 86/237/4
f 134/238/2 53/239/2 140/240/2 81/241/2
f 21/242/4 110/243/4 109/244/4 83/245/4
f 10/246/3 83/247/3 109/248/3 82/249/3
f 106/250/3 52/251/3 119/252/3 118/253/3
f 13/254/5 68/255/5 69/256/5 4/257/5
f 37/258/5 114/259/5 115/260/5 28/261/5
f 75/262/6 150/263/6 149/264/6 17/265/6
f 65/266/5 54/267/5 56/268/5 57/269/5
f 119/270/5 50/271/5 65/272/5 118/273/5
f 51/274/1 41/275/1 65/276/1 50/277/1
f 47/278/6 105/279/6 103/280/6 92/281/6
f 12/282/1 58/283/1 59/284/1 57/285/1
f 5/286/5 132/287/5 67/288/5 2/289/5
f 21/290/5 83/291/5 10/292/5 11/293/5
f 99/294/5 24/295/5 16/296/5 97/297/5
f 74/298/4 142/299/4 61/300/4 25/301/4
f 149/302/4 18/303/4 19/304/4 17/305/4
f 37/306/1 28/307/1 108/308/1 36/309/1
f 121/310/2 42/311/2 106/312/2 118/313/2
f 45/314/5 44/315/5 63/316/5 129/317/5
f 40/318/1 55/319/1 56/320/1 54/321/1
f 3/322/3 96/323/3 95/324/3 117/325/3
f 29/326/3 101/327/3 110/328/3 21/329/3 11/330/3 95/331/3 118/332/3 39/333/3
f 94/334/5 123/335/5 124/336/5 122/337/5
f 134/338/5 81/339/5 79/340/5 133/341/5
f 88/342/5 76/343/5 107/344/5 87/345/5
f 109/346/4 87/347/4 107/348/4 72/349/4
f 71/350/4 125/351/4 127/352/4 14/353/4
f 32/354/2 159/42/2 156/41/2 130/355/2
f 13/356/4 160/18/4 155/17/4 68/357/4
f 113/358/4 72/359/4 20/360/4 112/361/4
f 61/362/6 142/363/6 71/364/6 14/365/6
f 140/366/6 53/367/6 141/368/6 80/369/6
f 77/370/6 90/371/6 152/372/6 26/373/6
f 88/374/2 27/375/2 108/376/2 76/377/2
f 64/378/6 34/379/6 74/380/6 25/381/6
f 19/382/6 18/383/6 8/384/6 70/385/6
f 65/386/2 41/387/2 40/388/2 54/389/2
f 113/390/1 111/391/1 9/392/1 72/393/1
f 12/394/4 57/395/4 56/396/4 55/397/4
f 99/398/3 97/399/3 98/400/3 100/401/3 102/402/3 145/403/3 103/404/3 105/405/3 104/406/3 130/407/3 156/30/3 158/29/3
f 65/272/1 57/408/1 60/409/1 112/410/1 20/411/1 62/412/1 115/413/1 114/414/1
f 43/71/6 106/70/6 42/82/6 31/81/6 30/415/6
f 98/416/4 97/417/4 16/418/4 15/419/4
f 5/420/4 4/421/4 69/422/4 132/423/4
f 8/424/4 6/425/4 7/426/4 70/427/4
f 45/428/2 46/429/2 66/430/2 44/431/2
f 104/432/2 105/433/2 47/434/2 131/435/2
f 154/7/2 161/6/2 122/436/2 124/437/2
f 155/3/1 163/2/1 128/438/1 125/439/1 71/440/1 142/441/1 74/442/1 34/443/1 143/444/1 46/445/1 45/446/1 129/447/1 157/22/1 154/21/1 124/448/1 123/449/1 79/450/1 81/451/1 140/452/1 80/453/1 146/454/1 48/455/1 49/456/1 151/457/1 77/458/1 26/459/1 75/460/1 17/461/1 19/462/1 70/463/1 7/464/1 1/465/1 67/466/1 132/467/1 69/468/1 68/469/1
f 164/11/2 157/10/2 129/470/2 63/471/2
f 161/15/3 159/14/3 32/472/3 131/473/3 47/474/3 92/475/3 35/476/3 86/477/3 144/478/3 15/479/3 16/480/3 24/481/3 162/46/3 160/45/3 13/482/3 4/483/3 5/484/3 2/485/3 139/486/3 6/487/3 8/488/3 18/489/3 149/490/3 150/491/3 152/492/3 90/493/3 89/494/3 93/495/3 147/496/3 148/497/3 141/498/3 53/499/3 134/500/3 133/501/3 94/502/3 122/503/3
